<svg width="18" height="18" viewBox="0 0 18 18" fill="none" xmlns="http://www.w3.org/2000/svg">
<path d="M17.8274 11.7525C17.6084 11.5327 17.2522 11.5327 17.0324 11.7525L15.3674 13.4175V5.7375C15.3674 4.1865 14.1052 2.925 12.5549 2.925H8.16742C7.85692 2.925 7.60492 3.177 7.60492 3.4875C7.60492 3.798 7.85692 4.05 8.16742 4.05H12.5549C13.4849 4.05 14.2424 4.8075 14.2424 5.7375V13.4175L12.5774 11.7525C12.3577 11.5327 12.0014 11.5327 11.7824 11.7525C11.5634 11.9722 11.5619 12.3285 11.7824 12.5475L14.4074 15.1725C14.5162 15.2827 14.6602 15.3375 14.8049 15.3375C14.9497 15.3375 15.0922 15.2835 15.2024 15.1725L17.8274 12.5475C18.0479 12.3285 18.0479 11.9722 17.8274 11.7525ZM9.83242 14.2125H5.44492C4.51492 14.2125 3.75742 13.455 3.75742 12.525V4.845L5.42242 6.51C5.53342 6.62025 5.67742 6.675 5.82142 6.675C5.96542 6.675 6.10942 6.62025 6.21892 6.51C6.43867 6.29025 6.43867 5.934 6.21892 5.715L3.59392 3.09C3.37417 2.8695 3.01792 2.8695 2.79892 3.09L0.17392 5.715C-0.0465801 5.934 -0.0465801 6.29025 0.17392 6.51C0.39442 6.72975 0.74917 6.72975 0.96892 6.51L2.63392 4.845V12.525C2.63392 14.076 3.89617 15.3375 5.44642 15.3375H9.83392C10.1444 15.3375 10.3964 15.0855 10.3964 14.775C10.3964 14.4645 10.1437 14.2125 9.83392 14.2125H9.83242Z" fill="#8899A6"/>
</svg>
