<svg width="19" height="19" viewBox="0 0 19 19" fill="none" xmlns="http://www.w3.org/2000/svg">
<path d="M17.0445 16.2054L14.147 13.3079C15.196 12.065 15.8333 10.4611 15.8333 8.70833C15.8333 4.77375 12.6428 1.58333 8.70825 1.58333C4.77367 1.58333 1.58325 4.77375 1.58325 8.70833C1.58325 12.6429 4.77367 15.8333 8.70825 15.8333C10.4618 15.8333 12.0649 15.1968 13.3063 14.1471L16.2038 17.0446C16.3201 17.1602 16.4729 17.2187 16.6233 17.2187C16.7738 17.2187 16.9281 17.161 17.0429 17.0446C17.2765 16.8126 17.2765 16.4374 17.0445 16.2054ZM2.77075 8.70833C2.77075 5.43479 5.43471 2.77083 8.70825 2.77083C11.9818 2.77083 14.6458 5.43479 14.6458 8.70833C14.6458 11.9819 11.9818 14.6458 8.70825 14.6458C5.43471 14.6458 2.77075 11.9819 2.77075 8.70833Z" fill="#8899A6"/>
</svg>
